<?xml version="1.0" encoding="UTF-8" standalone="no"?>
<!DOCTYPE svg PUBLIC "-//W3C//DTD SVG 1.1//EN" "http://www.w3.org/Graphics/SVG/1.1/DTD/svg11.dtd">
<svg width="100%" height="100%" viewBox="0 0 128 128" version="1.1" xmlns="http://www.w3.org/2000/svg" xmlns:xlink="http://www.w3.org/1999/xlink" xml:space="preserve" xmlns:serif="http://www.serif.com/" style="fill-rule:evenodd;clip-rule:evenodd;stroke-linejoin:round;stroke-miterlimit:2;">
    <g id="Layer1">
        <path d="M112.394,21.884C112.394,15.637 107.322,10.565 101.075,10.565L26.926,10.565C20.678,10.565 15.606,15.637 15.606,21.884L15.606,96.371C15.606,102.619 20.678,107.691 26.926,107.691L101.075,107.691C107.322,107.691 112.394,102.619 112.394,96.371L112.394,21.884ZM109,22.937C109,17.913 104.92,13.833 99.896,13.833L27.979,13.833C22.954,13.833 18.874,17.913 18.874,22.937L18.874,94.854C18.874,99.879 22.954,103.959 27.979,103.959L99.896,103.959C104.92,103.959 109,99.879 109,94.854L109,22.937Z" style="fill:rgb(239,239,237);"/>
        <path d="M119.265,16.276C119.265,11.319 115.24,7.294 110.283,7.294L17.718,7.294C12.761,7.294 8.737,11.319 8.737,16.276L8.737,111.451C8.737,116.408 12.761,120.433 17.718,120.433L110.283,120.433C115.24,120.433 119.265,116.408 119.265,111.451L119.265,16.276ZM112.394,22.639C112.394,15.975 106.984,10.565 100.32,10.565L27.681,10.565C21.017,10.565 15.606,15.975 15.606,22.639L15.606,95.616C15.606,102.28 21.017,107.691 27.681,107.691L100.32,107.691C106.984,107.691 112.394,102.28 112.394,95.616L112.394,22.639Z" style="fill:rgb(213,214,208);"/>
        <path d="M122,16.597C122,9.644 116.356,4 109.403,4L18.389,4C11.436,4 5.792,9.644 5.792,16.597L5.792,111.112C5.792,118.064 11.436,123.709 18.389,123.709L109.403,123.709C116.356,123.709 122,118.064 122,111.112L122,16.597ZM119.265,16.711C119.265,11.514 115.045,7.294 109.848,7.294L18.154,7.294C12.956,7.294 8.737,11.514 8.737,16.711L8.737,111.016C8.737,116.213 12.956,120.433 18.154,120.433L109.848,120.433C115.045,120.433 119.265,116.213 119.265,111.016L119.265,16.711Z" style="fill:rgb(231,234,227);"/>
        <path d="M125.476,17.276C125.476,8.293 118.183,1 109.2,1L18.8,1C9.817,1 2.524,8.293 2.524,17.276L2.524,110.724C2.524,119.707 9.817,127 18.8,127L109.2,127C118.183,127 125.476,119.707 125.476,110.724L125.476,17.276ZM122,16.994C122,9.822 116.178,4 109.006,4L18.785,4C11.614,4 5.792,9.822 5.792,16.994L5.792,110.715C5.792,117.887 11.614,123.709 18.785,123.709L109.006,123.709C116.178,123.709 122,117.887 122,110.715L122,16.994Z" style="fill:rgb(135,137,132);"/>
        <path d="M108.926,22.924C108.926,17.891 104.84,13.806 99.808,13.806L28.118,13.806C23.086,13.806 19,17.891 19,22.924L19,94.964C19,99.996 23.086,104.082 28.118,104.082L99.808,104.082C104.84,104.082 108.926,99.996 108.926,94.964L108.926,22.924Z" style="fill:rgb(222,225,218);"/>
        <g transform="matrix(1,0,0,1,-1.98404,16.5116)">
            <text x="43.112px" y="62.113px" style="font-family:'ArialMT', 'Arial', sans-serif;font-size:58.333px;">Q</text>
        </g>
    </g>
</svg>
